<svg width="780" height="698" viewBox="0 0 780 698" fill="none" xmlns="http://www.w3.org/2000/svg">
<g filter="url(#filter0_d_1_2858)">
<path fill-rule="evenodd" clip-rule="evenodd" d="M164.002 353.076H338.315V142.582L302.838 107H164.002V353.076Z" fill="url(#paint0_linear_1_2858)" stroke="black"/>
<path fill-rule="evenodd" clip-rule="evenodd" d="M302.889 142.529L320.555 124.78L338.315 142.529V178.117L302.889 142.529Z" fill="black" fill-opacity="0.1" stroke="black"/>
<path fill-rule="evenodd" clip-rule="evenodd" d="M338.313 142.558H302.887V107L338.313 142.558Z" fill="#0080CD" stroke="black"/>
<g clip-path="url(#clip0_1_2858)">
<path d="M302 178.109C302 175.298 300.012 171.85 297.583 170.445L255.417 146.054C252.988 144.649 249.012 144.649 246.583 146.054L204.417 170.445C201.987 171.85 200 175.299 200 178.109V226.891C200 229.701 201.988 233.15 204.417 234.555L246.583 258.946C249.012 260.351 252.988 260.351 255.417 258.946L297.583 234.555C298.798 233.852 299.902 232.639 300.702 231.25C301.503 229.861 302 228.296 302 226.891V178.109Z" fill="#0080CD"/>
<path d="M255.416 258.946L297.583 234.555C298.797 233.852 299.901 232.639 300.702 231.25L250.999 202.5L201.297 231.25C202.097 232.639 203.202 233.853 204.416 234.555L246.583 258.946C249.012 260.351 252.987 260.351 255.416 258.946Z" fill="#00549E"/>
<path d="M251 236.564C232.252 236.564 217 221.283 217 202.5C217 183.717 232.252 168.436 251 168.436C263.097 168.436 274.38 174.958 280.444 185.457L265.729 193.988C262.694 188.733 257.05 185.468 251 185.468C241.626 185.468 234 193.108 234 202.5C234 211.891 241.626 219.532 251 219.532C257.051 219.532 262.695 216.267 265.73 211.011L280.445 219.541C274.381 230.042 263.098 236.564 251 236.564Z" fill="white"/>
<path d="M284.999 200.608H281.221V196.823H277.444V200.608H273.666V204.392H277.444V208.177H281.221V204.392H284.999V200.608Z" fill="white"/>
<path d="M299.167 200.608H295.389V196.823H291.612V200.608H287.834V204.392H291.612V208.177H295.389V204.392H299.167V200.608Z" fill="white"/>
</g>
<rect x="200.5" y="145.5" width="101" height="114" stroke="black"/>
<mask id="mask0_1_2858" style="mask-type:alpha" maskUnits="userSpaceOnUse" x="30" y="-52" width="805" height="710">
<path d="M550.662 25.2764L496.354 141.206L496.224 141.483L496.413 141.726L631.733 314.874L631.787 314.942L631.861 314.989L631.862 314.99L632.025 315.093L632.215 315.06L793.308 287.049L834.267 331.487L762.116 480.359L703.462 405.145L739.855 357.586L740.751 356.415L739.328 356.799L678.241 373.289L677.515 373.485L677.978 374.079L702.198 405.149V405.15L702.437 405.455L761.251 480.877L637.374 490.855L578.882 400.524L578.684 400.219L578.331 400.313L345.901 463.299L345.678 463.359L345.579 463.569L255.54 656.015L142.761 657.496L30.5713 549.181L74.4355 412.46L294.886 373.921L294.998 373.901L295.091 373.835L295.092 373.834L295.188 373.766L295.242 373.663L484.229 20.2666V20.2656L522.161 -50.7881L550.662 25.2764ZM229.443 494.791L151.561 515.861L150.853 516.053L151.289 516.642L189.987 568.86L190.33 569.323L190.739 568.919L190.741 568.918L190.795 568.865L190.831 568.798L230.015 495.509L230.561 494.488L229.443 494.791ZM460.212 218.733L396.204 355.465L395.797 356.335L396.743 356.17L533.727 332.243H534.844L534.342 331.471L461.084 218.673L460.594 217.918L460.212 218.733ZM483.497 19.5059L396.693 12.6611L395.56 12.5713L396.26 13.4678L449.968 82.1494L414.987 147.534L324.229 7.42676L354.108 -41.2109L521.376 -51.4473L483.497 19.5059Z" fill="#89D3DF" stroke="black"/>
</mask>
<g mask="url(#mask0_1_2858)">
<g filter="url(#filter1_d_1_2858)">
<path d="M762.115 480.36L703.462 405.144L739.753 357.718L833.936 332.169L762.115 480.36Z" fill="#258B74" stroke="black"/>
<path d="M396.395 13.6411L449.968 82.1499L414.987 147.534L324.607 8.01123L396.395 13.6411Z" fill="#63C1A0" stroke="black"/>
<path d="M631.734 314.874L677.978 374.079V374.078L702.437 405.456H702.438L761.251 480.877L638.195 490.79L670.372 448.624L669.975 448.321L669.577 448.018L637.151 490.51L578.883 400.525V400.524L534.601 332.243H534.845L534.344 331.472L461.235 218.905L496.916 142.368L631.734 314.874Z" fill="#63C1A0" stroke="black"/>
<path d="M189.799 568.605L142.435 657.181L30.9805 549.576L151.491 516.915L189.799 568.605Z" fill="#331433" stroke="black"/>
<path d="M577.668 400.494L345.901 463.299L229.443 494.791H229.442L151.561 515.862L30.7568 548.601L74.4355 412.461L294.886 373.922L396.741 356.172L533.438 332.294L577.668 400.494Z" fill="#E01A59" stroke="black"/>
<path d="M833.939 331.133L739.329 356.799L678.562 373.202L633.036 314.916L793.308 287.049L833.939 331.133Z" fill="#E01A59" stroke="black"/>
<path d="M550.445 25.7412L496.357 141.206L496.356 141.207L460.215 218.733L396.314 355.229L295.727 372.759L415.475 148.754L451.008 82.335L484.075 20.5547L550.445 25.7412Z" fill="#ECB32D" stroke="black"/>
<path d="M255.541 656.015L143.407 657.488L190.459 569.493L209.217 594.741L209.618 594.444L210.02 594.145L190.98 568.519L229.914 495.698L345.124 464.543L255.541 656.015Z" fill="#ECB32D" stroke="black"/>
<path d="M483.499 19.5059L396.914 12.6777L354.799 -41.2529L521.378 -51.4473L483.499 19.5059Z" fill="#89D3DF" stroke="black"/>
<path d="M395.559 12.5723L324.491 6.99902L353.866 -40.8184L395.559 12.5723Z" fill="#89D3DF" stroke="black"/>
<path d="M550.459 24.7383L484.588 19.5908L522.161 -50.7891L550.459 24.7383Z" fill="#89D3DF" stroke="black"/>
</g>
<path d="M779.5 0.5V657.5H30.5V0.5H779.5Z" fill="url(#paint1_linear_1_2858)" stroke="black"/>
</g>
<path fill-rule="evenodd" clip-rule="evenodd" d="M230 271H359V326H230V271Z" fill="#00549E" stroke="black"/>
<path d="M272.229 282C278.599 282 282.852 284.721 285.605 288.583L285.884 288.974L285.506 289.268L279.131 294.235L278.744 294.536L278.435 294.155C276.74 292.066 274.904 290.736 272.143 290.736C268.203 290.736 265.351 294.136 265.351 298.412V298.5C265.351 302.906 268.202 306.22 272.143 306.22C273.65 306.22 274.816 305.869 275.826 305.264C276.847 304.652 277.732 303.768 278.658 302.662L278.956 302.307L279.333 302.577L285.708 307.148L286.118 307.442L285.82 307.851C284.331 309.887 282.589 311.68 280.343 312.962C278.092 314.246 275.363 315 271.924 315C262.918 315 255.661 308.054 255.661 298.588V298.5C255.661 289.26 262.693 282 272.229 282ZM254.394 304.813V314.385H244.791V304.813H254.394ZM302.247 282.615C306.17 282.615 309.462 283.625 311.781 285.562C314.112 287.507 315.41 290.346 315.41 293.885V293.973C315.41 297.761 313.964 300.689 311.506 302.659C309.062 304.618 305.665 305.594 301.811 305.594H298.075V314.385H288.604V282.615H302.247ZM331.628 282.615C335.551 282.615 338.842 283.625 341.162 285.562C343.493 287.507 344.791 290.347 344.791 293.885V293.973C344.791 297.761 343.345 300.689 340.887 302.659C338.443 304.618 335.046 305.594 331.191 305.594H327.456V314.385H317.984V282.615H331.628ZM298.075 297.912H301.636C303.036 297.912 304.124 297.539 304.853 296.93C305.571 296.328 305.983 295.461 305.983 294.368V294.28C305.983 293.092 305.567 292.246 304.857 291.684C304.13 291.107 303.033 290.78 301.593 290.78H298.075V297.912ZM327.456 297.912H331.017C332.416 297.912 333.504 297.539 334.232 296.93C334.951 296.328 335.363 295.462 335.363 294.368V294.28C335.363 293.092 334.947 292.246 334.237 291.684C333.51 291.107 332.413 290.78 330.973 290.78H327.456V297.912Z" fill="white" stroke="black"/>
</g>
<defs>
<filter id="filter0_d_1_2858" x="26" y="-52" width="812.866" height="718" filterUnits="userSpaceOnUse" color-interpolation-filters="sRGB">
<feFlood flood-opacity="0" result="BackgroundImageFix"/>
<feColorMatrix in="SourceAlpha" type="matrix" values="0 0 0 0 0 0 0 0 0 0 0 0 0 0 0 0 0 0 127 0" result="hardAlpha"/>
<feOffset dy="4"/>
<feGaussianBlur stdDeviation="2"/>
<feComposite in2="hardAlpha" operator="out"/>
<feColorMatrix type="matrix" values="0 0 0 0 0 0 0 0 0 0 0 0 0 0 0 0 0 0 0.25 0"/>
<feBlend mode="normal" in2="BackgroundImageFix" result="effect1_dropShadow_1_2858"/>
<feBlend mode="normal" in="SourceGraphic" in2="effect1_dropShadow_1_2858" result="shape"/>
</filter>
<filter id="filter1_d_1_2858" x="0" y="-72" width="864.866" height="770" filterUnits="userSpaceOnUse" color-interpolation-filters="sRGB">
<feFlood flood-opacity="0" result="BackgroundImageFix"/>
<feColorMatrix in="SourceAlpha" type="matrix" values="0 0 0 0 0 0 0 0 0 0 0 0 0 0 0 0 0 0 127 0" result="hardAlpha"/>
<feOffset dy="10"/>
<feGaussianBlur stdDeviation="15"/>
<feColorMatrix type="matrix" values="0 0 0 0 0.0941176 0 0 0 0 0.0941176 0 0 0 0 0.0941176 0 0 0 0.2 0"/>
<feBlend mode="normal" in2="BackgroundImageFix" result="effect1_dropShadow_1_2858"/>
<feBlend mode="normal" in="SourceGraphic" in2="effect1_dropShadow_1_2858" result="shape"/>
</filter>
<linearGradient id="paint0_linear_1_2858" x1="178.072" y1="194.939" x2="360.986" y2="309.009" gradientUnits="userSpaceOnUse">
<stop stop-color="#0080CD" stop-opacity="0.46"/>
<stop offset="1" stop-color="#470A3F" stop-opacity="0.6"/>
</linearGradient>
<linearGradient id="paint1_linear_1_2858" x1="701.107" y1="77.5535" x2="-44.2981" y2="452.596" gradientUnits="userSpaceOnUse">
<stop offset="0.145833" stop-color="#240E25" stop-opacity="0.89"/>
<stop offset="1" stop-color="#240E25" stop-opacity="0"/>
</linearGradient>
<clipPath id="clip0_1_2858">
<rect x="200" y="145" width="102" height="115" fill="white"/>
</clipPath>
</defs>
</svg>
