<svg width="308" height="216" viewBox="0 0 308 216" fill="none" xmlns="http://www.w3.org/2000/svg">
<g filter="url(#filter0_d_1_2763)">
<path fill-rule="evenodd" clip-rule="evenodd" d="M173.813 190.783H275.692V67.7575L254.957 46.9608H173.813V190.783Z" fill="#F20036"/>
<path fill-rule="evenodd" clip-rule="evenodd" d="M254.986 67.7436L265.312 57.3713L275.691 67.7436V88.5439L254.986 67.7436Z" fill="#E10029"/>
<path fill-rule="evenodd" clip-rule="evenodd" d="M275.691 67.7615H254.985V46.9783L275.691 67.7615Z" fill="#A8000A"/>
<path fill-rule="evenodd" clip-rule="evenodd" d="M252.728 99.1436L239.826 101.553L228.994 86.7624L233.349 76.8468L231.063 70.2179L217.617 71.0947L215.222 75.3125L222.516 87.3657L212.881 106.594L195.244 109.881L191.706 121.605L200.688 130.918L209.724 130.808L216.91 114.318L235.472 108.95L240.153 116.674L250.169 115.797L255.994 102.978L252.728 99.1436ZM221.046 75.7513L228.014 76.3537L225.347 81.6678L221.046 75.7513ZM204.553 123.247L201.45 118.81L207.656 117.002L204.553 123.247ZM221.046 105.059L226.163 93.3914L232.042 103.033L221.046 105.059ZM243.528 106.594L248.427 105.169L245.488 109.279L243.528 106.594Z" fill="white"/>
<path fill-rule="evenodd" clip-rule="evenodd" d="M207.771 142.803H287.671V174.779H207.771V142.803Z" fill="#A8000A"/>
<path fill-rule="evenodd" clip-rule="evenodd" d="M218.956 163.212V167.191H223.065V163.212H218.956ZM238.848 160.426C239.503 159.911 240.017 159.272 240.392 158.509C240.766 157.747 240.953 156.859 240.953 155.848V155.798C240.953 154.902 240.796 154.085 240.481 153.347C240.166 152.61 239.716 151.974 239.129 151.444C238.542 150.913 237.827 150.503 236.985 150.213C236.143 149.923 235.186 149.777 234.114 149.777H226.816V167.191H230.746V161.967H233.732C234.735 161.967 235.675 161.84 236.551 161.582C237.427 161.324 238.193 160.939 238.848 160.426ZM236.117 153.907C236.687 154.354 236.972 155.01 236.972 155.872V155.922C236.972 156.669 236.7 157.294 236.156 157.8C235.611 158.306 234.846 158.559 233.859 158.559H230.746V153.235H233.783C234.769 153.235 235.547 153.459 236.117 153.907ZM257.681 164.68C258.523 163.9 259.174 162.98 259.633 161.918C260.092 160.857 260.322 159.712 260.322 158.484V158.435C260.322 157.207 260.092 156.067 259.633 155.014C259.174 153.96 258.523 153.045 257.681 152.265C256.839 151.486 255.835 150.876 254.67 150.436C253.504 149.997 252.224 149.777 250.829 149.777H243.863V167.191H250.829C252.224 167.191 253.504 166.968 254.67 166.52C255.835 166.073 256.839 165.459 257.681 164.68ZM255.818 156.371C256.082 157.016 256.214 157.722 256.214 158.484V158.534C256.214 159.314 256.082 160.019 255.818 160.649C255.554 161.279 255.189 161.828 254.721 162.291C254.253 162.756 253.687 163.112 253.024 163.36C252.36 163.609 251.629 163.734 250.829 163.734H247.792V153.235H250.829C251.629 153.235 252.36 153.364 253.024 153.62C253.687 153.878 254.253 154.239 254.721 154.703C255.189 155.167 255.554 155.724 255.818 156.371ZM267.748 156.992V153.235H277.42V149.777H263.818V167.191H267.748V160.45H276.271V156.992H267.748Z" fill="white"/>
<path fill-rule="evenodd" clip-rule="evenodd" d="M150.013 47.9527V64.7367H90.9203V120.868H150.013V137.842L200.785 92.9923L150.013 47.9527Z" fill="#1B0B1C"/>
<path fill-rule="evenodd" clip-rule="evenodd" d="M165 86.5243C165 85.791 164.474 84.8914 163.831 84.5249L152.669 78.1621C152.026 77.7955 150.974 77.7955 150.331 78.1621L139.169 84.5249C138.526 84.8914 138 85.7912 138 86.5243V99.25C138 99.6165 138.131 100.025 138.343 100.387C138.555 100.75 138.847 101.066 139.169 101.249L150.331 107.612C150.662 107.801 151.102 107.893 151.539 107.887C151.632 107.886 151.725 107.88 151.816 107.87C152.129 107.836 152.428 107.75 152.669 107.612L163.831 101.249C164.152 101.066 164.445 100.75 164.656 100.387C164.868 100.025 165 99.6166 165 99.2499V86.5243ZM151.5 101.774C146.537 101.774 142.5 97.7872 142.5 92.8872C142.5 87.9873 146.537 84.0009 151.5 84.0009C154.702 84.0009 157.689 85.7024 159.294 88.4413L155.399 90.6667C154.596 89.2957 153.101 88.4441 151.5 88.4441C149.019 88.4441 147 90.4372 147 92.8872C147 95.3372 149.019 97.3304 151.5 97.3304C153.102 97.3304 154.596 96.4787 155.399 95.1075L159.294 97.3328C157.689 100.072 154.702 101.774 151.5 101.774ZM160.5 92.3935H159.5V91.4061H158.5V92.3935H157.5V93.3808H158.5V94.3683H159.5V93.3808H160.5V92.3935ZM164.25 92.3935H163.25V91.4061H162.25V92.3935H161.25V93.3808H162.25V94.3683H163.25V93.3808H164.25V92.3935Z" fill="white"/>
<path fill-rule="evenodd" clip-rule="evenodd" d="M20 158.822H121.879V35.7965L101.144 15H20V158.822Z" fill="#F49400"/>
<path fill-rule="evenodd" clip-rule="evenodd" d="M101.174 35.8006L111.499 25.4269L121.879 35.8006V56.6001L101.174 35.8006Z" fill="#F08400"/>
<path fill-rule="evenodd" clip-rule="evenodd" d="M121.878 35.8177H101.173V15.0353L121.878 35.8177Z" fill="#D23F00"/>
<path fill-rule="evenodd" clip-rule="evenodd" d="M36.9816 110.828H133.86V142.804H36.9816V110.828Z" fill="#D24000"/>
<path fill-rule="evenodd" clip-rule="evenodd" d="M93.1316 55.7727H71.9417H59.5578L60.3585 64.8055H71.9417H92.3311L89.9244 91.8859L71.9417 96.8943L71.9266 96.8995L53.954 91.8859L52.698 77.7221H61.5043L62.1598 85.0718L71.9318 87.7232L71.9417 87.718L81.7235 85.0666L82.7445 73.6278H71.9417H52.3378L49.9662 46.9608H71.9417H93.9122L93.1316 55.7727Z" fill="#FEFEFE"/>
<path fill-rule="evenodd" clip-rule="evenodd" d="M65.2195 135.867V128.65H58.1284V135.867H54.2829V117.889H58.1284V125.003H65.2195V117.889H69.0649V135.867H65.2195ZM45.9834 135.867V131.758H50.0032V135.867H45.9834ZM81.0998 135.867V121.535H86.4184V117.889H71.9362V121.535H77.2546V135.867H81.0998ZM102.96 135.867V124.13L98.0414 131.809H97.9415L93.0726 124.207V135.867H89.2773V117.889H93.4221L98.0164 125.491L102.611 117.889H106.756V135.867H102.96ZM111.315 117.889V135.867H123.875V132.297H115.16V117.889H111.315Z" fill="white"/>
</g>
<defs>
<filter id="filter0_d_1_2763" x="0" y="0" width="307.671" height="215.783" filterUnits="userSpaceOnUse" color-interpolation-filters="sRGB">
<feFlood flood-opacity="0" result="BackgroundImageFix"/>
<feColorMatrix in="SourceAlpha" type="matrix" values="0 0 0 0 0 0 0 0 0 0 0 0 0 0 0 0 0 0 127 0" result="hardAlpha"/>
<feOffset dy="5"/>
<feGaussianBlur stdDeviation="10"/>
<feColorMatrix type="matrix" values="0 0 0 0 0 0 0 0 0 0 0 0 0 0 0 0 0 0 0.15 0"/>
<feBlend mode="normal" in2="BackgroundImageFix" result="effect1_dropShadow_1_2763"/>
<feBlend mode="normal" in="SourceGraphic" in2="effect1_dropShadow_1_2763" result="shape"/>
</filter>
</defs>
</svg>
